<?xml version="1.0" encoding="UTF-8"?>
<svg version="1.1" xmlns="http://www.w3.org/2000/svg" width="480" height="360">
<path d="M0 0 C6.343047885263616 -0.4955506160362191 12.654539587451978 -0.4736195025769945 19 0 C37.92630728858151 2.3330130048739477 56.79570946518302 7.069239965246005 75.01727294921875 12.61383056640625 C91.03015806721851 17.562690068718425 107.06067131611326 22.69962359574025 122.13720703125 30.09130859375 C124.0467392090651 31.022799912993506 125.97186596991872 31.913622039769805 127.90234375 32.80078125 C131.34355610911746 34.41031621502982 134.70122810950272 36.110703371806096 138 38 C140.3590052761332 39.66707819665946 142.48209331725747 41.37140457167747 144.578125 43.35546875 C145.04734374999998 43.8981640625 145.51656249999996 44.440859375 146 45 C146.495 45.969375 146.99 46.93875 147.5 47.9375 C147.66499999999996 48.61812499999999 147.83000000000004 49.29875 148 50 C148.70124999999996 49.67644531249999 149.40250000000003 49.352890625 150.125 49.01953125 C151.54812500000003 48.51486328125 151.54812500000003 48.51486328125 153 48 C155.9375 47.69921875 155.9375 47.69921875 159 47.6875 C160.010625 47.6707421875 161.02125 47.65398437499999 162.0625 47.63671875 C163.031875 47.75660156250001 164.00125000000003 47.87648437499999 165 48 C167.7109375 49.3671875 167.7109375 49.3671875 170 51 C172.625 53.437499999999986 172.625 53.437499999999986 173.85546875 55.0078125 C175 57.00000000000003 175 57.00000000000003 176.05078125 59.7421875 C176.9457897345452 62.84120366234596 177.5948054793398 65.79979021437738 178 69 C177.9453125 71.46093749999996 177.9453125 71.46093749999996 177.5625 73.6875 C176.9296875 75.83984374999997 176.9296875 75.83984374999997 176 78 C173.6825265168423 82.22557290791329 170.85735429607467 85.91569897849381 167.875 89.6875 C165.23854251916214 91.80812884328265 162.7665893061681 93.42901457898269 159.8125 95.0625 C156.28162807381784 96.72914027659205 152.76636420467514 98.13827068418058 149.0234375 99.234375 C144.3905116509638 100.44654566547965 139.75176213395588 101.39408840994793 135 102 C130.02355698603333 102.39134000227205 125.04615283092016 102.5898111302252 120.055419921875 102.673095703125 C116.45154353523918 102.74245583395137 112.92986942009566 102.86703872882077 109.358642578125 103.377685546875 C107.80382593533335 103.68360406527569 106.25068616288831 103.9983017826184 104.7001953125 104.325439453125 C104.13913085937497 104.54804443359376 103.57806640625 104.77064941406252 103 105 C101.78130071314831 107.50447515809824 101.78130071314831 107.50447515809824 101 110 C99.453125 110.4021875 99.453125 110.4021875 97.875 110.8125 C96.92624999999998 110.87437499999999 95.97750000000002 110.93625 95 111 C94.67000000000002 109.68 94.34000000000003 108.36000000000001 94 107 C93.34000000000003 107 92.68 107 92 107 C91.773125 107.68062500000002 91.54624999999999 108.36124999999998 91.3125 109.0625 C90.87937499999998 110.03187500000001 90.44625000000002 111.00125 90 112 C89.15437500000002 112.99000000000001 88.30875000000003 113.98000000000002 87.4375 115 C86.99535156249999 115.58265625000001 86.55320312499998 116.1653125 86.09765625 116.765625 C85.73542968750002 117.50296874999998 85.37320312500003 118.24031250000002 85 119 C84.53673354602722 122.39455419371191 84.37575989914592 125.68464867344798 84.3359375 129.109375 C84.22507812499998 130.06328125 84.11421875000002 131.0171875 84 132 C83.64164062499998 132.62390625 83.28328125000002 133.2478125 82.9140625 133.890625 C82.28242187500001 134.25671875 81.65078125 134.6228125 81 135 C77.81713867187483 135.1748046875 77.81713867187483 135.1748046875 74 135 C71.6524251503051 134.51882527950144 69.32155469694408 133.95069643118077 67.01171875 133.3125 C66.35906539916994 133.13438278198242 65.70641204833984 132.95626556396485 65.03398132324219 132.7727508544922 C62.91570984147131 132.19138759353444 60.80155769976719 131.59648907056228 58.6875 131 C57.216374931959535 130.59066320341836 55.745182774568065 130.1815674491809 54.27392578125 129.772705078125 C44.94828251265625 127.16807906844701 35.645481910106014 124.48217370150005 26.375 121.6875 C25.32272216796875 121.37490234375 24.270444335937498 121.06230468749999 23.186279296875 120.740234375 C19.632863690693426 119.64624772082806 16.16188598069249 118.53384641308463 12.780517578125 116.980224609375 C10.855468749999972 115.9453125 10.855468749999972 115.9453125 8 114 C7.649374999999992 113.071875 7.298749999999984 112.14375000000001 6.9375 111.1875 C6.968437499999993 109.6096875 6.968437499999993 109.6096875 7 108 C7.75 104.375 7.75 104.375 9 101 C9.514335937499993 100.38382812499998 10.028671874999986 99.76765625000002 10.55859375 99.1328125 C11.034257812500016 98.428984375 11.509921875000003 97.72515625 12 97 C12.414647244467375 94.0395078459534 12.304907841023265 91.26829855567311 12.20703125 88.28125 C12.104550781249998 86.65703124999999 12.104550781249998 86.65703124999999 12 85 C11.941992187500006 83.9996875 11.883984375000011 82.999375 11.82421875 81.96875 C11.534926115773203 78.98273755250656 11.534926115773203 78.98273755250656 10.9453125 75.9921875 C10.633359374999998 75.004765625 10.321406249999995 74.01734375 10 73 C7.644432753590763 68.77350374448103 4.81056427285796 64.93282111035641 2 61 C-0.9688794938753631 56.49131089296014 -3.849177282255795 51.96465133747196 -6 47 C-7.259595936715982 43.239523071870096 -7.9804330172703715 39.435077678906325 -8.60546875 35.51953125 C-9.043636914824276 31.610724155874607 -9.358465737908176 27.831007888993483 -9.22265625 23.8984375 C-8.235367141613096 11.046358229419504 -8.235367141613096 11.046358229419504 -7 6 C-6.3760937499999955 5.048671874999997 -5.752187499999991 4.09734375 -5.109375 3.1171875 C-4.413281250000011 2.4185156249999977 -3.7171874999999943 1.719843749999999 -3 1 C-2.009999999999991 0.6700000000000017 -1.0200000000000102 0.33999999999999986 0 0 Z M155 59 C154.01 59.412499999999994 153.01999999999998 59.825 152 60.25 C151.34000000000003 60.8275 150.68 61.405 150 62 C149.56687499999998 62.86625000000001 149.56687499999998 62.86625000000001 149.125 63.75 C149.08375 64.4925 149.04250000000002 65.235 149 66 C149.3220574335976 68.33491639358246 149.65458149323274 70.66842507932122 150 73 C149.67000000000002 73.66 149.34000000000003 74.32 149 75 C148.40187500000002 74.9175 147.80375000000004 74.83500000000001 147.1875 74.75 C146.1046875 74.37875 146.1046875 74.37875 145 74 C143.25 71.9375 143.25 71.9375 142 70 C141.01 70.33 140.01999999999998 70.66 139 71 C137.33126118051553 72.7864466580058 137.33126118051553 72.7864466580058 135.8125 74.9375 C135.01779296874997 76.00291015625 135.01779296874997 76.00291015625 134.20703125 77.08984375 C133.8087109375 77.7201953125 133.410390625 78.35054687499999 133 79 C133 79.66 133 80.32 133 81 C132.43796874999998 81.255234375 131.87593749999996 81.51046875 131.296875 81.7734375 C128.9203934122221 82.97324663439403 128.9203934122221 82.97324663439403 126.640625 84.7265625 C125.85171875000003 85.353046875 125.0628125 85.97953125000001 124.25 86.625 C123.05117187500002 87.5724609375 123.05117187500002 87.5724609375 121.828125 88.5390625 C121.22484374999999 89.021171875 120.62156249999998 89.50328125 120 90 C120.33000000000004 90.66 120.65999999999997 91.32 121 92 C127.1992505030048 91.80351028516625 133.30415136171285 91.381103912468 139.3984375 90.21875 C144.65774528099394 89.11336066177145 149.81375490987494 87.84434293135865 154.83203125 85.90625 C157.11425529328278 84.79907326610689 157.11425529328278 84.79907326610689 159.1328125 83.49609375 C161.3040678204094 81.7563640685841 163.13838786649308 79.87971186712721 165 77.8125 C166.02984035551827 76.56572568070357 167.036633992921 75.29882381311545 168 74 C168.32999999999998 73.34 168.65999999999997 72.68 169 72 C169.42278478475043 68.47007819681862 169.42278478475043 68.47007819681862 169.33203125 66.04296875 C169.2224609375 65.3687890625 169.11289062499998 64.694609375 169 64 C168.36062500000003 63.00999999999999 167.72125 62.02000000000001 167.0625 61 C166.051875 60.34 165.04125 59.68000000000001 164 59 C161.82232478477852 58.53628142440121 161.82232478477852 58.53628142440121 159.5 58.5 C157.17857496339872 58.598111842287466 157.17857496339872 58.598111842287466 155 59 Z " fill="#000000" transform="translate(173,30)"/>
</svg>
